<svg width="499" height="172" viewBox="0 0 499 172" fill="none" xmlns="http://www.w3.org/2000/svg">
<path d="M491.128 57.1498C491.555 60.7149 490.426 64.4601 487.73 68.364C485.029 72.2748 480.791 76.2908 475.116 80.3442C463.767 88.4503 446.848 96.5842 425.572 104.273C383.036 119.645 323.298 133.163 256.449 141.164C189.6 149.165 128.36 150.127 83.3975 145.227C60.908 142.776 42.5472 138.865 29.6059 133.666C23.1347 131.066 18.0681 128.164 14.5208 125.001C10.9799 121.843 8.99891 118.47 8.57221 114.905C8.14552 111.34 9.27453 107.595 11.9703 103.691C14.6709 99.7804 18.9096 95.7644 24.5844 91.711C35.9333 83.6049 52.8525 75.471 74.1284 67.7821C116.665 52.4099 176.402 38.8918 243.251 30.8909C310.1 22.8899 371.34 21.9287 416.303 26.8284C438.792 29.2791 457.153 33.1905 470.095 38.3894C476.566 40.9891 481.632 43.8914 485.18 47.0544C488.721 50.2118 490.702 53.5848 491.128 57.1498Z" stroke="url(#paint0_linear_267_5)" stroke-width="2"/>
<path d="M332 4L335.511 13.4888L345 17L335.511 20.5112L332 30L328.489 20.5112L319 17L328.489 13.4888L332 4Z" fill="#D5F60C"/>
<path d="M140 125L143.511 134.489L153 138L143.511 141.511L140 151L136.489 141.511L127 138L136.489 134.489L140 125Z" fill="#D5F60C"/>
<defs>
<linearGradient id="paint0_linear_267_5" x1="502.083" y1="60.3315" x2="-28.2735" y2="110.222" gradientUnits="userSpaceOnUse">
<stop stop-color="#12F7D6"/>
<stop offset="1" stop-color="#98FAEC" stop-opacity="0"/>
</linearGradient>
</defs>
</svg>
