<svg width="347" height="118" viewBox="0 0 347 118" fill="none" xmlns="http://www.w3.org/2000/svg">
<path d="M341.401 44.0428C341.883 49.5607 338.042 55.4619 329.996 61.4257C322.003 67.3499 310.127 73.1305 295.202 78.4324C265.365 89.0311 223.565 97.6405 176.88 101.725C130.195 105.809 87.534 104.589 56.3106 99.3327C40.6913 96.7031 27.9917 93.0726 19.092 88.6262C10.1328 84.1502 5.32457 79.0058 4.84182 73.4879C4.35907 67.9701 8.20091 62.0689 16.2467 56.1051C24.2391 50.1809 36.1154 44.4003 51.0408 39.0984C80.877 28.4997 122.678 19.8903 169.363 15.8059C216.048 11.7215 258.709 12.9415 289.932 18.1981C305.551 20.8277 318.251 24.4582 327.151 28.9045C336.11 33.3806 340.918 38.525 341.401 44.0428Z" stroke="url(#paint0_linear_267_5)" stroke-width="2"/>
<path d="M319 11L322.511 20.4888L332 24L322.511 27.5112L319 37L315.489 27.5112L306 24L315.489 20.4888L319 11Z" fill="#D5F60C"/>
<path d="M107 91L110.511 100.489L120 104L110.511 107.511L107 117L103.489 107.511L94 104L103.489 100.489L107 91Z" fill="#D5F60C"/>
<defs>
<linearGradient id="paint0_linear_267_5" x1="349.29" y1="46.8478" x2="-20.9306" y2="70.8228" gradientUnits="userSpaceOnUse">
<stop stop-color="#12F7D6"/>
<stop offset="1" stop-color="#98FAEC" stop-opacity="0"/>
</linearGradient>
</defs>
</svg>
