<svg width="278" height="12" viewBox="0 0 278 12" fill="none" xmlns="http://www.w3.org/2000/svg">
<path d="M0.666667 6C0.666667 8.94552 3.05448 11.3333 6 11.3333C8.94552 11.3333 11.3333 8.94552 11.3333 6C11.3333 3.05448 8.94552 0.666667 6 0.666667C3.05448 0.666667 0.666667 3.05448 0.666667 6ZM266.667 6C266.667 8.94552 269.054 11.3333 272 11.3333C274.946 11.3333 277.333 8.94552 277.333 6C277.333 3.05448 274.946 0.666667 272 0.666667C269.054 0.666667 266.667 3.05448 266.667 6ZM6 7H272V5H6V7Z" fill="#12F7D6"/>
</svg>
