<svg width="112" height="28" viewBox="0 0 112 28" fill="none" xmlns="http://www.w3.org/2000/svg">
<circle cx="14" cy="14" r="14" fill="#12F7D6"/>
<path d="M9.28 20V11.248L8.96 9.632L9.28 8.672H15.04C15.904 8.672 16.6453 8.81067 17.264 9.088C17.8827 9.36533 18.3573 9.81333 18.688 10.432C19.0187 11.04 19.184 11.8453 19.184 12.848C19.184 13.776 19.0293 14.5387 18.72 15.136C18.4107 15.7333 17.9573 16.1867 17.36 16.496L17.632 16.72L18.736 18.224L19.648 19.04V20H15.408L13.648 17.072H12.8V17.424L12.96 19.024L12.8 20H9.28ZM12.8 14.08H13.728C14.1013 14.08 14.4213 14.064 14.688 14.032C14.9653 14 15.1787 13.904 15.328 13.744C15.4773 13.5733 15.552 13.3013 15.552 12.928C15.552 12.5333 15.472 12.2507 15.312 12.08C15.152 11.9093 14.928 11.808 14.64 11.776C14.3627 11.7333 14.0373 11.712 13.664 11.712H12.64L12.8 14.08Z" fill="black"/>
<path d="M35.28 20V11.248L34.96 9.632L35.28 8.672H41.04C41.904 8.672 42.6453 8.81067 43.264 9.088C43.8827 9.36533 44.3573 9.81333 44.688 10.432C45.0187 11.04 45.184 11.8453 45.184 12.848C45.184 13.776 45.0293 14.5387 44.72 15.136C44.4107 15.7333 43.9573 16.1867 43.36 16.496L43.632 16.72L44.736 18.224L45.648 19.04V20H41.408L39.648 17.072H38.8V17.424L38.96 19.024L38.8 20H35.28ZM38.8 14.08H39.728C40.1013 14.08 40.4213 14.064 40.688 14.032C40.9653 14 41.1787 13.904 41.328 13.744C41.4773 13.5733 41.552 13.3013 41.552 12.928C41.552 12.5333 41.472 12.2507 41.312 12.08C41.152 11.9093 40.928 11.808 40.64 11.776C40.3627 11.7333 40.0373 11.712 39.664 11.712H38.64L38.8 14.08ZM46.9325 20V11.248L46.7725 9.648L46.9325 8.672H50.4525V13.008H53.7965V8.672H57.3165V14.688L57.4765 15.792V20H53.7965V15.936H50.4525V17.056L50.6125 20H46.9325ZM58.5975 20L59.3655 17.296V15.264L60.5495 14.784L62.7895 8.688H67.6055L70.3415 15.856L71.5735 18.128V20H68.1015L67.3015 17.616H62.9655L62.2775 20H58.5975ZM64.0215 14.816H66.4215L65.3655 11.632H65.0295L64.0215 14.816ZM72.5504 20L72.0544 19.04L77.0464 11.696H72.5504V8.672H81.7504V10.56L77.5744 16.976H78.0704L81.7824 16.656V20H72.5504ZM83.5456 20L83.2256 19.04L83.5456 17.44V8.672H91.7856L92.5856 9.152L91.5296 11.872L90.0896 11.712H87.0976V12.992H91.0496V15.632H88.8416L87.0976 15.472V16.96H91.5296L93.4336 18.976L92.4896 20H83.5456ZM94.7175 20V11.296L94.3975 9.68L94.7175 8.672H98.2375V10.592L98.0775 13.136H98.5575L100.974 8.672H104.798V9.632L101.63 14.128L104.318 17.456L105.902 19.04V20H101.661L98.9095 16.08L98.2375 16.24V18.08L98.3975 19.04L98.2375 20H94.7175Z" fill="white"/>
</svg>
