<svg width="264" height="264" viewBox="0 0 264 264" fill="none" xmlns="http://www.w3.org/2000/svg">
<g filter="url(#filter0_d_208_194)">
<rect x="20" y="20" width="224" height="224" rx="20" fill="#23252A" shape-rendering="crispEdges"/>
<path d="M132.115 66.1876C128.324 66.1997 125.697 66.5337 122.521 67.0821C113.141 68.7152 111.432 72.1448 111.432 78.4652V88.1251H133.37V93.0001H110.599H99.9956C93.5704 93.0001 87.9471 96.0274 86.1653 103.284C84.1519 111.613 84.0617 116.829 86.1653 125.526C87.7618 132.012 91.2791 136.875 97.7068 136.875H106.56V124.434C106.56 117.204 113.107 110.063 120.61 110.063H138.247C144.397 110.063 150.435 105.524 150.435 99.3936V78.4652C150.435 72.5202 146.147 68.0742 140.153 67.0772C140.302 67.0626 135.873 66.1729 132.115 66.1876ZM119.966 75.9376C121.967 75.9376 123.622 77.5877 123.622 79.5987C123.622 81.6291 121.967 83.2501 119.966 83.2501C117.926 83.2501 116.31 81.6316 116.31 79.5987C116.31 77.5951 117.926 75.9376 119.966 75.9376Z" fill="#0277BD"/>
<path d="M129.753 158.812C133.543 158.8 136.171 158.466 139.347 157.918C148.726 156.285 150.435 152.855 150.435 146.535V136.875H128.497V132H151.271H161.874C168.299 132 173.923 128.973 175.704 121.716C177.718 113.387 177.808 108.171 175.704 99.474C174.105 92.9878 170.588 88.125 164.16 88.125H155.307V100.566C155.307 107.796 148.76 114.938 141.258 114.938H123.62C117.47 114.938 111.432 119.476 111.432 125.606V146.535C111.432 152.48 115.72 156.926 121.714 157.923C121.565 157.937 125.994 158.827 129.753 158.812ZM141.904 149.062C139.902 149.062 138.247 147.412 138.247 145.401C138.247 143.371 139.902 141.75 141.904 141.75C143.944 141.75 145.56 143.369 145.56 145.401C145.56 147.405 143.941 149.062 141.904 149.062Z" fill="#FFC107"/>
<path d="M77.335 204V190.325L76.835 187.8L77.335 186.3H86.335C87.685 186.3 88.8433 186.517 89.81 186.95C90.7766 187.383 91.5183 188.083 92.035 189.05C92.5516 190 92.81 191.258 92.81 192.825C92.81 195.175 92.1766 196.867 90.91 197.9C89.66 198.917 87.885 199.425 85.585 199.425H82.835V199.975L83.085 202.475L82.835 204H77.335ZM82.835 194.75H84.285C84.8683 194.75 85.3683 194.725 85.785 194.675C86.2183 194.625 86.5516 194.475 86.785 194.225C87.0183 193.958 87.135 193.533 87.135 192.95C87.135 192.333 87.01 191.892 86.76 191.625C86.51 191.358 86.16 191.2 85.71 191.15C85.2766 191.083 84.7683 191.05 84.185 191.05H82.585L82.835 194.75ZM99.6346 204V196.75L93.4346 187.8V186.3H99.7096L102.21 191.45H102.71L105.185 186.3H111.435V187.8L105.06 196.9L105.21 199.425V204H99.6346ZM117.31 204V191.075L112.31 191.325V186.3H127.935V191.325L122.81 191.075V200L123.085 202.5L122.81 204H117.31ZM130.186 204V190.325L129.936 187.825L130.186 186.3H135.686V193.075H140.911V186.3H146.411V195.7L146.661 197.425V204H140.911V197.65H135.686V199.4L135.936 204H130.186ZM158.012 204.25C156.945 204.25 155.879 204.125 154.812 203.875C153.762 203.608 152.795 203.142 151.912 202.475C151.045 201.808 150.345 200.883 149.812 199.7C149.279 198.517 149.012 197 149.012 195.15C149.012 193.3 149.279 191.783 149.812 190.6C150.345 189.417 151.045 188.492 151.912 187.825C152.795 187.158 153.762 186.7 154.812 186.45C155.879 186.183 156.945 186.05 158.012 186.05C159.079 186.05 160.137 186.183 161.187 186.45C162.254 186.717 163.22 187.183 164.087 187.85C164.97 188.517 165.679 189.442 166.212 190.625C166.745 191.808 167.012 193.317 167.012 195.15C167.012 196.983 166.745 198.492 166.212 199.675C165.679 200.858 164.97 201.783 164.087 202.45C163.22 203.117 162.254 203.583 161.187 203.85C160.137 204.117 159.079 204.25 158.012 204.25ZM158.012 199.25C159.095 199.25 159.912 198.925 160.462 198.275C161.012 197.608 161.287 196.567 161.287 195.15C161.287 193.75 161.012 192.717 160.462 192.05C159.912 191.383 159.095 191.05 158.012 191.05C155.845 191.05 154.762 192.417 154.762 195.15C154.762 196.55 155.029 197.583 155.562 198.25C156.112 198.917 156.929 199.25 158.012 199.25ZM169.864 204V190.325L169.364 187.825L169.864 186.325H174.889L179.939 192.625L181.139 194.7H181.389V186.325H187.164V187.825L186.914 190.325V204H181.939L175.664 195.45H175.414V196.95L175.664 204H169.864Z" fill="white"/>
</g>
<defs>
<filter id="filter0_d_208_194" x="0" y="0" width="264" height="264" filterUnits="userSpaceOnUse" color-interpolation-filters="sRGB">
<feFlood flood-opacity="0" result="BackgroundImageFix"/>
<feColorMatrix in="SourceAlpha" type="matrix" values="0 0 0 0 0 0 0 0 0 0 0 0 0 0 0 0 0 0 127 0" result="hardAlpha"/>
<feOffset/>
<feGaussianBlur stdDeviation="10"/>
<feComposite in2="hardAlpha" operator="out"/>
<feColorMatrix type="matrix" values="0 0 0 0 0.0705882 0 0 0 0 0.968627 0 0 0 0 0.839216 0 0 0 0.2 0"/>
<feBlend mode="normal" in2="BackgroundImageFix" result="effect1_dropShadow_208_194"/>
<feBlend mode="normal" in="SourceGraphic" in2="effect1_dropShadow_208_194" result="shape"/>
</filter>
</defs>
</svg>
