<svg width="264" height="264" viewBox="0 0 264 264" fill="none" xmlns="http://www.w3.org/2000/svg">
<g filter="url(#filter0_d_208_194)">
<rect x="20" y="20" width="224" height="224" rx="20" fill="#23252A" shape-rendering="crispEdges"/>
<g clip-path="url(#clip0_208_194)">
<rect x="96" y="80" width="72" height="64" fill="#D9D9D9"/>
<path fill-rule="evenodd" clip-rule="evenodd" d="M97.8013 63.75C91.1254 63.75 86.1856 69.5931 86.4067 75.9299C86.6189 82.0178 86.3432 89.9025 84.3582 96.3325C82.3672 102.781 79 106.866 73.5 107.391V113.312C79 113.837 82.3672 117.922 84.3582 124.371C86.3432 130.801 86.6189 138.686 86.4067 144.773C86.1856 151.11 91.1254 156.953 97.8023 156.953H166.207C172.884 156.953 177.823 151.11 177.601 144.773C177.389 138.686 177.665 130.801 179.65 124.371C181.642 117.922 185 113.837 190.5 113.312V107.391C185 106.866 181.642 102.781 179.65 96.3325C177.665 89.9034 177.389 82.0178 177.601 75.9299C177.823 69.5941 172.884 63.75 166.207 63.75H97.8013ZM152.822 121.122C152.822 129.848 146.313 135.14 135.513 135.14H117.127C116.601 135.14 116.097 134.931 115.725 134.559C115.353 134.187 115.144 133.683 115.144 133.157V87.5466C115.144 87.0207 115.353 86.5163 115.725 86.1444C116.097 85.7725 116.601 85.5636 117.127 85.5636H135.408C144.414 85.5636 150.324 90.4418 150.324 97.9318C150.324 103.189 146.349 107.896 141.282 108.719V108.994C148.179 109.751 152.822 114.526 152.822 121.122ZM133.508 91.8498H123.025V106.657H131.854C138.68 106.657 142.444 103.909 142.444 98.9958C142.444 94.3921 139.207 91.8498 133.508 91.8498ZM123.025 112.533V128.852H133.894C141 128.852 144.765 126 144.765 120.641C144.765 115.281 140.895 112.532 133.437 112.532L123.025 112.533Z" fill="#563D7C"/>
</g>
<path d="M50.7603 204V190.3L50.2603 187.8L50.7603 186.3H60.2603C62.1436 186.3 63.6519 186.667 64.7853 187.4C65.9186 188.133 66.4853 189.25 66.4853 190.75C66.4853 191.567 66.3353 192.242 66.0353 192.775C65.7519 193.292 65.3853 193.733 64.9353 194.1C65.5019 194.233 66.0353 194.483 66.5353 194.85C67.0353 195.2 67.4436 195.675 67.7603 196.275C68.0769 196.858 68.2353 197.583 68.2353 198.45C68.2353 200.2 67.7186 201.567 66.6853 202.55C65.6686 203.517 64.0269 204 61.7603 204H50.7603ZM56.2603 193.175H59.2103C59.7769 193.175 60.1853 193.092 60.4353 192.925C60.6853 192.742 60.8103 192.467 60.8103 192.1C60.8103 191.717 60.6269 191.45 60.2603 191.3C59.8936 191.133 59.4603 191.05 58.9603 191.05H56.2603V193.175ZM56.2603 199.25H60.5103C61.1769 199.25 61.6436 199.15 61.9103 198.95C62.1769 198.733 62.3103 198.45 62.3103 198.1C62.3103 197.3 61.7936 196.9 60.7603 196.9H56.2603V199.25ZM79.0937 204.25C78.027 204.25 76.9603 204.125 75.8937 203.875C74.8437 203.608 73.877 203.142 72.9937 202.475C72.127 201.808 71.427 200.883 70.8937 199.7C70.3603 198.517 70.0937 197 70.0937 195.15C70.0937 193.3 70.3603 191.783 70.8937 190.6C71.427 189.417 72.127 188.492 72.9937 187.825C73.877 187.158 74.8437 186.7 75.8937 186.45C76.9603 186.183 78.027 186.05 79.0937 186.05C80.1603 186.05 81.2187 186.183 82.2687 186.45C83.3353 186.717 84.302 187.183 85.1687 187.85C86.052 188.517 86.7603 189.442 87.2937 190.625C87.827 191.808 88.0937 193.317 88.0937 195.15C88.0937 196.983 87.827 198.492 87.2937 199.675C86.7603 200.858 86.052 201.783 85.1687 202.45C84.302 203.117 83.3353 203.583 82.2687 203.85C81.2187 204.117 80.1603 204.25 79.0937 204.25ZM79.0937 199.25C80.177 199.25 80.9937 198.925 81.5437 198.275C82.0937 197.608 82.3687 196.567 82.3687 195.15C82.3687 193.75 82.0937 192.717 81.5437 192.05C80.9937 191.383 80.177 191.05 79.0937 191.05C76.927 191.05 75.8437 192.417 75.8437 195.15C75.8437 196.55 76.1103 197.583 76.6437 198.25C77.1937 198.917 78.0103 199.25 79.0937 199.25ZM98.7958 204.25C97.7291 204.25 96.6625 204.125 95.5958 203.875C94.5458 203.608 93.5791 203.142 92.6958 202.475C91.8291 201.808 91.1291 200.883 90.5958 199.7C90.0625 198.517 89.7958 197 89.7958 195.15C89.7958 193.3 90.0625 191.783 90.5958 190.6C91.1291 189.417 91.8291 188.492 92.6958 187.825C93.5791 187.158 94.5458 186.7 95.5958 186.45C96.6625 186.183 97.7291 186.05 98.7958 186.05C99.8625 186.05 100.921 186.183 101.971 186.45C103.037 186.717 104.004 187.183 104.871 187.85C105.754 188.517 106.462 189.442 106.996 190.625C107.529 191.808 107.796 193.317 107.796 195.15C107.796 196.983 107.529 198.492 106.996 199.675C106.462 200.858 105.754 201.783 104.871 202.45C104.004 203.117 103.037 203.583 101.971 203.85C100.921 204.117 99.8625 204.25 98.7958 204.25ZM98.7958 199.25C99.8791 199.25 100.696 198.925 101.246 198.275C101.796 197.608 102.071 196.567 102.071 195.15C102.071 193.75 101.796 192.717 101.246 192.05C100.696 191.383 99.8791 191.05 98.7958 191.05C96.6291 191.05 95.5458 192.417 95.5458 195.15C95.5458 196.55 95.8125 197.583 96.3458 198.25C96.8958 198.917 97.7125 199.25 98.7958 199.25ZM113.66 204V191.075L108.66 191.325V186.3H124.285V191.325L119.16 191.075V200L119.435 202.5L119.16 204H113.66ZM132.911 204.25C131.994 204.25 131.086 204.167 130.186 204C129.302 203.85 128.519 203.65 127.836 203.4C127.152 203.15 126.661 202.9 126.361 202.65V197.425C126.994 197.775 127.702 198.092 128.486 198.375C129.269 198.658 130.061 198.883 130.861 199.05C131.677 199.2 132.452 199.275 133.186 199.275C134.202 199.275 134.711 199.042 134.711 198.575C134.711 198.342 134.602 198.15 134.386 198C134.186 197.833 133.827 197.658 133.311 197.475C132.794 197.292 132.061 197.058 131.111 196.775C130.011 196.425 129.069 196.058 128.286 195.675C127.519 195.292 126.927 194.8 126.511 194.2C126.111 193.6 125.911 192.8 125.911 191.8C125.911 190.067 126.602 188.675 127.986 187.625C129.369 186.575 131.394 186.05 134.061 186.05C134.594 186.05 135.161 186.075 135.761 186.125C136.377 186.158 136.869 186.208 137.236 186.275L140.311 188.35L139.061 192.15L132.661 190.525C131.994 190.525 131.661 190.75 131.661 191.2C131.661 191.55 131.869 191.842 132.286 192.075C132.719 192.292 133.494 192.592 134.611 192.975C136.094 193.475 137.269 193.992 138.136 194.525C139.019 195.042 139.652 195.633 140.036 196.3C140.419 196.967 140.611 197.758 140.611 198.675C140.611 200.342 139.969 201.692 138.686 202.725C137.402 203.742 135.477 204.25 132.911 204.25ZM147.156 204V191.075L142.156 191.325V186.3H157.781V191.325L152.656 191.075V200L152.931 202.5L152.656 204H147.156ZM160.282 204V190.325L159.782 187.8L160.282 186.3H169.282C170.632 186.3 171.79 186.517 172.757 186.95C173.723 187.383 174.465 188.083 174.982 189.05C175.498 190 175.757 191.258 175.757 192.825C175.757 194.275 175.515 195.467 175.032 196.4C174.548 197.333 173.84 198.042 172.907 198.525L173.332 198.875L175.057 201.225L176.482 202.5V204H169.857L167.107 199.425H165.782V199.975L166.032 202.475L165.782 204H160.282ZM165.782 194.75H167.232C167.815 194.75 168.315 194.725 168.732 194.675C169.165 194.625 169.498 194.475 169.732 194.225C169.965 193.958 170.082 193.533 170.082 192.95C170.082 192.333 169.957 191.892 169.707 191.625C169.457 191.358 169.107 191.2 168.657 191.15C168.223 191.083 167.715 191.05 167.132 191.05H165.532L165.782 194.75ZM176.989 204L178.189 199.775V196.6L180.039 195.85L183.539 186.325H191.064L195.339 197.525L197.264 201.075V204H191.839L190.589 200.275H183.814L182.739 204H176.989ZM185.464 195.9H189.214L187.564 190.925H187.039L185.464 195.9ZM199.515 204V190.325L199.015 187.8L199.515 186.3H208.515C209.865 186.3 211.023 186.517 211.99 186.95C212.957 187.383 213.698 188.083 214.215 189.05C214.732 190 214.99 191.258 214.99 192.825C214.99 195.175 214.357 196.867 213.09 197.9C211.84 198.917 210.065 199.425 207.765 199.425H205.015V199.975L205.265 202.475L205.015 204H199.515ZM205.015 194.75H206.465C207.048 194.75 207.548 194.725 207.965 194.675C208.398 194.625 208.732 194.475 208.965 194.225C209.198 193.958 209.315 193.533 209.315 192.95C209.315 192.333 209.19 191.892 208.94 191.625C208.69 191.358 208.34 191.2 207.89 191.15C207.457 191.083 206.948 191.05 206.365 191.05H204.765L205.015 194.75Z" fill="white"/>
</g>
<defs>
<filter id="filter0_d_208_194" x="0" y="0" width="264" height="264" filterUnits="userSpaceOnUse" color-interpolation-filters="sRGB">
<feFlood flood-opacity="0" result="BackgroundImageFix"/>
<feColorMatrix in="SourceAlpha" type="matrix" values="0 0 0 0 0 0 0 0 0 0 0 0 0 0 0 0 0 0 127 0" result="hardAlpha"/>
<feOffset/>
<feGaussianBlur stdDeviation="10"/>
<feComposite in2="hardAlpha" operator="out"/>
<feColorMatrix type="matrix" values="0 0 0 0 0.0705882 0 0 0 0 0.968627 0 0 0 0 0.839216 0 0 0 0.2 0"/>
<feBlend mode="normal" in2="BackgroundImageFix" result="effect1_dropShadow_208_194"/>
<feBlend mode="normal" in="SourceGraphic" in2="effect1_dropShadow_208_194" result="shape"/>
</filter>
<clipPath id="clip0_208_194">
<rect width="117" height="117" fill="white" transform="translate(73.5 54)"/>
</clipPath>
</defs>
</svg>
