<svg width="264" height="264" viewBox="0 0 264 264" fill="none" xmlns="http://www.w3.org/2000/svg">
<g filter="url(#filter0_d_208_180)">
<rect x="20" y="20" width="224" height="224" rx="20" fill="#23252A" shape-rendering="crispEdges"/>
<path d="M88.125 156.375V68.625H175.875V156.375H88.125Z" fill="#FFD600"/>
<path d="M145.499 134.308C147.186 137.048 149.019 139.673 152.902 139.673C156.163 139.673 157.874 138.052 157.874 135.81C157.874 133.126 156.104 132.173 152.516 130.611L150.549 129.772C144.872 127.364 141.097 124.346 141.097 117.972C141.097 112.098 145.594 107.627 152.621 107.627C157.625 107.627 161.221 109.36 163.814 113.899L157.686 117.816C156.338 115.408 154.881 114.46 152.621 114.46C150.315 114.46 148.855 115.915 148.855 117.816C148.855 120.166 150.318 121.117 153.694 122.572L155.661 123.41C162.352 126.26 166.125 129.17 166.125 135.712C166.125 142.762 160.558 146.625 153.084 146.625C145.774 146.625 141.623 142.957 139.312 138.416L145.499 134.308ZM117.258 134.508C118.491 136.717 120.366 138.416 123.062 138.416C125.641 138.416 127.125 137.397 127.125 133.436V107.625H135.249V134.684C135.249 142.891 130.489 146.625 123.537 146.625C117.256 146.625 112.722 142.369 110.874 138.416L117.258 134.508Z" fill="#000001"/>
<path d="M53.9547 204.25C53.4714 204.25 53.013 204.225 52.5797 204.175C52.163 204.125 51.7797 204.067 51.4297 204L47.6797 202.25L49.1797 197.95L54.3047 199.55C54.9547 199.55 55.4214 199.333 55.7047 198.9C56.0047 198.45 56.1547 197.658 56.1547 196.525V190.3L55.6297 187.8L55.8797 186.3H61.6547L61.6797 197.325C61.6797 199.558 61.013 201.275 59.6797 202.475C58.3464 203.658 56.438 204.25 53.9547 204.25ZM63.1826 204L64.3826 199.775V196.6L66.2326 195.85L69.7326 186.325H77.2576L81.5326 197.525L83.4576 201.075V204H78.0326L76.7826 200.275H70.0076L68.9326 204H63.1826ZM71.6576 195.9H75.4076L73.7576 190.925H73.2326L71.6576 195.9ZM87.8447 204L83.3447 190.275L82.5947 187.8V186.3H88.3947L91.3947 198.95H91.8947L94.8697 186.3H100.595V187.8L99.8447 190.275L95.3697 204H87.8447ZM99.7305 204L100.93 199.775V196.6L102.78 195.85L106.28 186.325H113.805L118.08 197.525L120.005 201.075V204H114.58L113.33 200.275H106.555L105.48 204H99.7305ZM108.205 195.9H111.955L110.305 190.925H109.78L108.205 195.9ZM128.382 204.25C127.465 204.25 126.557 204.167 125.657 204C124.774 203.85 123.99 203.65 123.307 203.4C122.624 203.15 122.132 202.9 121.832 202.65V197.425C122.465 197.775 123.174 198.092 123.957 198.375C124.74 198.658 125.532 198.883 126.332 199.05C127.149 199.2 127.924 199.275 128.657 199.275C129.674 199.275 130.182 199.042 130.182 198.575C130.182 198.342 130.074 198.15 129.857 198C129.657 197.833 129.299 197.658 128.782 197.475C128.265 197.292 127.532 197.058 126.582 196.775C125.482 196.425 124.54 196.058 123.757 195.675C122.99 195.292 122.399 194.8 121.982 194.2C121.582 193.6 121.382 192.8 121.382 191.8C121.382 190.067 122.074 188.675 123.457 187.625C124.84 186.575 126.865 186.05 129.532 186.05C130.065 186.05 130.632 186.075 131.232 186.125C131.849 186.158 132.34 186.208 132.707 186.275L135.782 188.35L134.532 192.15L128.132 190.525C127.465 190.525 127.132 190.75 127.132 191.2C127.132 191.55 127.34 191.842 127.757 192.075C128.19 192.292 128.965 192.592 130.082 192.975C131.565 193.475 132.74 193.992 133.607 194.525C134.49 195.042 135.124 195.633 135.507 196.3C135.89 196.967 136.082 197.758 136.082 198.675C136.082 200.342 135.44 201.692 134.157 202.725C132.874 203.742 130.949 204.25 128.382 204.25ZM146.977 204.25C145.827 204.25 144.71 204.117 143.627 203.85C142.56 203.583 141.602 203.117 140.752 202.45C139.902 201.783 139.227 200.858 138.727 199.675C138.227 198.492 137.977 196.983 137.977 195.15C137.977 193.5 138.219 192.1 138.702 190.95C139.185 189.783 139.844 188.842 140.677 188.125C141.51 187.408 142.469 186.883 143.552 186.55C144.635 186.217 145.777 186.05 146.977 186.05C147.827 186.05 148.652 186.117 149.452 186.25C150.269 186.383 150.86 186.533 151.227 186.7L154.252 189.225L151.752 193.35L146.977 191.15C146.41 191.15 145.877 191.308 145.377 191.625C144.894 191.925 144.494 192.375 144.177 192.975C143.877 193.558 143.727 194.283 143.727 195.15C143.727 196.25 143.894 197.1 144.227 197.7C144.577 198.283 145.069 198.683 145.702 198.9C146.352 199.117 147.119 199.225 148.002 199.225C148.852 199.225 149.652 199.142 150.402 198.975C151.169 198.792 151.844 198.583 152.427 198.35C153.01 198.117 153.452 197.917 153.752 197.75V202.75C153.419 202.917 152.944 203.125 152.327 203.375C151.727 203.608 150.977 203.817 150.077 204C149.194 204.167 148.16 204.25 146.977 204.25ZM156.998 204V190.325L156.498 187.8L156.998 186.3H165.998C167.348 186.3 168.506 186.517 169.473 186.95C170.44 187.383 171.181 188.083 171.698 189.05C172.215 190 172.473 191.258 172.473 192.825C172.473 194.275 172.231 195.467 171.748 196.4C171.265 197.333 170.556 198.042 169.623 198.525L170.048 198.875L171.773 201.225L173.198 202.5V204H166.573L163.823 199.425H162.498V199.975L162.748 202.475L162.498 204H156.998ZM162.498 194.75H163.948C164.531 194.75 165.031 194.725 165.448 194.675C165.881 194.625 166.215 194.475 166.448 194.225C166.681 193.958 166.798 193.533 166.798 192.95C166.798 192.333 166.673 191.892 166.423 191.625C166.173 191.358 165.823 191.2 165.373 191.15C164.94 191.083 164.431 191.05 163.848 191.05H162.248L162.498 194.75ZM175.205 204V190.3L174.955 187.8L175.205 186.3H180.73V204H175.205ZM184.22 204V190.325L183.72 187.8L184.22 186.3H193.22C194.57 186.3 195.728 186.517 196.695 186.95C197.661 187.383 198.403 188.083 198.92 189.05C199.436 190 199.695 191.258 199.695 192.825C199.695 195.175 199.061 196.867 197.795 197.9C196.545 198.917 194.77 199.425 192.47 199.425H189.72V199.975L189.97 202.475L189.72 204H184.22ZM189.72 194.75H191.17C191.753 194.75 192.253 194.725 192.67 194.675C193.103 194.625 193.436 194.475 193.67 194.225C193.903 193.958 194.02 193.533 194.02 192.95C194.02 192.333 193.895 191.892 193.645 191.625C193.395 191.358 193.045 191.2 192.595 191.15C192.161 191.083 191.653 191.05 191.07 191.05H189.47L189.72 194.75ZM205.444 204V191.075L200.444 191.325V186.3H216.069V191.325L210.944 191.075V200L211.219 202.5L210.944 204H205.444Z" fill="white"/>
</g>
<defs>
<filter id="filter0_d_208_180" x="0" y="0" width="264" height="264" filterUnits="userSpaceOnUse" color-interpolation-filters="sRGB">
<feFlood flood-opacity="0" result="BackgroundImageFix"/>
<feColorMatrix in="SourceAlpha" type="matrix" values="0 0 0 0 0 0 0 0 0 0 0 0 0 0 0 0 0 0 127 0" result="hardAlpha"/>
<feOffset/>
<feGaussianBlur stdDeviation="10"/>
<feComposite in2="hardAlpha" operator="out"/>
<feColorMatrix type="matrix" values="0 0 0 0 0.0705882 0 0 0 0 0.968627 0 0 0 0 0.839216 0 0 0 0.2 0"/>
<feBlend mode="normal" in2="BackgroundImageFix" result="effect1_dropShadow_208_180"/>
<feBlend mode="normal" in="SourceGraphic" in2="effect1_dropShadow_208_180" result="shape"/>
</filter>
</defs>
</svg>
