<svg width="264" height="264" viewBox="0 0 264 264" fill="none" xmlns="http://www.w3.org/2000/svg">
<g filter="url(#filter0_d_208_173)">
<rect x="20" y="20" width="224" height="224" rx="20" fill="#23252A" shape-rendering="crispEdges"/>
<path d="M173.438 66.1875H90.5625L97.875 149.062L132 158.812L166.125 149.062L173.438 66.1875Z" fill="#0277BD"/>
<path d="M132 73.5V151.256L159.3 143.456L165.394 73.5H132Z" fill="#039BE5"/>
<path d="M154.181 85.6875H132V95.4375H143.944L143.213 105.188H132V114.938H142.725L141.994 125.906L132 129.319V139.556L151.256 133.219L152.962 105.188L154.181 85.6875Z" fill="white"/>
<path d="M132 85.6875V95.4375H110.306L109.575 85.6875H132ZM120.787 105.188L121.275 114.938H132V105.188H120.787ZM121.762 119.812H112.012L112.744 133.219L132 139.556V129.319L122.006 125.906L121.762 119.812Z" fill="#EEEEEE"/>
<path d="M116.044 204.25C114.894 204.25 113.778 204.117 112.694 203.85C111.628 203.583 110.669 203.117 109.819 202.45C108.969 201.783 108.294 200.858 107.794 199.675C107.294 198.492 107.044 196.983 107.044 195.15C107.044 193.5 107.286 192.1 107.769 190.95C108.253 189.783 108.911 188.842 109.744 188.125C110.578 187.408 111.536 186.883 112.619 186.55C113.703 186.217 114.844 186.05 116.044 186.05C116.894 186.05 117.719 186.117 118.519 186.25C119.336 186.383 119.928 186.533 120.294 186.7L123.319 189.225L120.819 193.35L116.044 191.15C115.478 191.15 114.944 191.308 114.444 191.625C113.961 191.925 113.561 192.375 113.244 192.975C112.944 193.558 112.794 194.283 112.794 195.15C112.794 196.25 112.961 197.1 113.294 197.7C113.644 198.283 114.136 198.683 114.769 198.9C115.419 199.117 116.186 199.225 117.069 199.225C117.919 199.225 118.719 199.142 119.469 198.975C120.236 198.792 120.911 198.583 121.494 198.35C122.078 198.117 122.519 197.917 122.819 197.75V202.75C122.486 202.917 122.011 203.125 121.394 203.375C120.794 203.608 120.044 203.817 119.144 204C118.261 204.167 117.228 204.25 116.044 204.25ZM132.19 204.25C131.274 204.25 130.365 204.167 129.465 204C128.582 203.85 127.799 203.65 127.115 203.4C126.432 203.15 125.94 202.9 125.64 202.65V197.425C126.274 197.775 126.982 198.092 127.765 198.375C128.549 198.658 129.34 198.883 130.14 199.05C130.957 199.2 131.732 199.275 132.465 199.275C133.482 199.275 133.99 199.042 133.99 198.575C133.99 198.342 133.882 198.15 133.665 198C133.465 197.833 133.107 197.658 132.59 197.475C132.074 197.292 131.34 197.058 130.39 196.775C129.29 196.425 128.349 196.058 127.565 195.675C126.799 195.292 126.207 194.8 125.79 194.2C125.39 193.6 125.19 192.8 125.19 191.8C125.19 190.067 125.882 188.675 127.265 187.625C128.649 186.575 130.674 186.05 133.34 186.05C133.874 186.05 134.44 186.075 135.04 186.125C135.657 186.158 136.149 186.208 136.515 186.275L139.59 188.35L138.34 192.15L131.94 190.525C131.274 190.525 130.94 190.75 130.94 191.2C130.94 191.55 131.149 191.842 131.565 192.075C131.999 192.292 132.774 192.592 133.89 192.975C135.374 193.475 136.549 193.992 137.415 194.525C138.299 195.042 138.932 195.633 139.315 196.3C139.699 196.967 139.89 197.758 139.89 198.675C139.89 200.342 139.249 201.692 137.965 202.725C136.682 203.742 134.757 204.25 132.19 204.25ZM149.061 204.25C148.144 204.25 147.236 204.167 146.336 204C145.452 203.85 144.669 203.65 143.986 203.4C143.302 203.15 142.811 202.9 142.511 202.65V197.425C143.144 197.775 143.852 198.092 144.636 198.375C145.419 198.658 146.211 198.883 147.011 199.05C147.827 199.2 148.602 199.275 149.336 199.275C150.352 199.275 150.861 199.042 150.861 198.575C150.861 198.342 150.752 198.15 150.536 198C150.336 197.833 149.977 197.658 149.461 197.475C148.944 197.292 148.211 197.058 147.261 196.775C146.161 196.425 145.219 196.058 144.436 195.675C143.669 195.292 143.077 194.8 142.661 194.2C142.261 193.6 142.061 192.8 142.061 191.8C142.061 190.067 142.752 188.675 144.136 187.625C145.519 186.575 147.544 186.05 150.211 186.05C150.744 186.05 151.311 186.075 151.911 186.125C152.527 186.158 153.019 186.208 153.386 186.275L156.461 188.35L155.211 192.15L148.811 190.525C148.144 190.525 147.811 190.75 147.811 191.2C147.811 191.55 148.019 191.842 148.436 192.075C148.869 192.292 149.644 192.592 150.761 192.975C152.244 193.475 153.419 193.992 154.286 194.525C155.169 195.042 155.802 195.633 156.186 196.3C156.569 196.967 156.761 197.758 156.761 198.675C156.761 200.342 156.119 201.692 154.836 202.725C153.552 203.742 151.627 204.25 149.061 204.25Z" fill="white"/>
</g>
<defs>
<filter id="filter0_d_208_173" x="0" y="0" width="264" height="264" filterUnits="userSpaceOnUse" color-interpolation-filters="sRGB">
<feFlood flood-opacity="0" result="BackgroundImageFix"/>
<feColorMatrix in="SourceAlpha" type="matrix" values="0 0 0 0 0 0 0 0 0 0 0 0 0 0 0 0 0 0 127 0" result="hardAlpha"/>
<feOffset/>
<feGaussianBlur stdDeviation="10"/>
<feComposite in2="hardAlpha" operator="out"/>
<feColorMatrix type="matrix" values="0 0 0 0 0.0705882 0 0 0 0 0.968627 0 0 0 0 0.839216 0 0 0 0.2 0"/>
<feBlend mode="normal" in2="BackgroundImageFix" result="effect1_dropShadow_208_173"/>
<feBlend mode="normal" in="SourceGraphic" in2="effect1_dropShadow_208_173" result="shape"/>
</filter>
</defs>
</svg>
