<svg width="264" height="264" viewBox="0 0 264 264" fill="none" xmlns="http://www.w3.org/2000/svg">
<g filter="url(#filter0_d_208_187)">
<rect x="20" y="20" width="224" height="224" rx="20" fill="#23252A" shape-rendering="crispEdges"/>
<path d="M131.147 114.689C128.714 110.767 126.949 107.515 124.505 101.392C120.371 91.05 149.647 81.7046 137.777 63.7476C142.922 76.152 119.308 83.8204 117.114 94.1505C115.108 103.652 131.135 114.689 131.147 114.689Z" fill="#F44336"/>
<path d="M131.703 96.0956C131.235 102.228 137.136 105.497 137.306 109.977C137.443 113.624 133.779 116.663 133.779 116.663C133.779 116.663 140.429 115.357 142.503 109.794C144.807 103.618 138.033 99.3886 138.73 94.4429C139.381 89.7191 153.43 80.9319 153.43 80.9319C153.43 80.9319 132.758 82.3018 131.703 96.0956Z" fill="#F44336"/>
<path d="M151.705 115.072C155.98 114.111 159.585 116.834 159.585 119.971C159.585 127.042 149.784 133.726 149.784 133.726C149.784 133.726 164.957 131.917 164.957 120.307C164.957 112.629 157.506 110.711 151.705 115.072ZM144.502 120.775C144.502 120.775 149.233 117.404 150.493 116.139C138.883 118.603 112.376 118.935 112.376 116.795C112.376 114.823 120.924 112.802 120.924 112.802C120.924 112.802 101.977 112.529 101.977 118.118C101.977 123.944 126.779 124.361 144.502 120.775Z" fill="#1565C0"/>
<path d="M141.592 126.079C130.601 129.733 110.357 128.566 116.354 123.659C113.434 123.659 109.105 126.006 109.105 128.263C109.105 132.79 130.998 136.285 147.203 129.658L141.592 126.079Z" fill="#1565C0"/>
<path d="M119.047 133.801C115.059 133.801 112.478 136.37 112.478 138.242C112.478 144.07 136.268 144.658 145.694 138.742L139.702 134.764C132.661 137.86 114.972 138.286 119.047 133.801Z" fill="#1565C0"/>
<path d="M161.935 143.29C161.935 141.009 159.363 139.934 158.442 139.42C163.873 152.516 104.044 151.5 104.044 143.768C104.044 142.011 108.449 140.29 112.52 141.104L109.058 139.059C100.946 137.787 95.4375 141.353 95.4375 144.229C95.4375 157.642 161.935 156.996 161.935 143.29Z" fill="#1565C0"/>
<path d="M168.562 148.097C158.457 158.079 132.831 161.715 107.062 155.549C132.831 166.525 168.441 160.343 168.562 148.097Z" fill="#1565C0"/>
<path d="M102.111 204.25C101.628 204.25 101.17 204.225 100.736 204.175C100.32 204.125 99.9364 204.067 99.5864 204L95.8364 202.25L97.3364 197.95L102.461 199.55C103.111 199.55 103.578 199.333 103.861 198.9C104.161 198.45 104.311 197.658 104.311 196.525V190.3L103.786 187.8L104.036 186.3H109.811L109.836 197.325C109.836 199.558 109.17 201.275 107.836 202.475C106.503 203.658 104.595 204.25 102.111 204.25ZM111.339 204L112.539 199.775V196.6L114.389 195.85L117.889 186.325H125.414L129.689 197.525L131.614 201.075V204H126.189L124.939 200.275H118.164L117.089 204H111.339ZM119.814 195.9H123.564L121.914 190.925H121.389L119.814 195.9ZM136.001 204L131.501 190.275L130.751 187.8V186.3H136.551L139.551 198.95H140.051L143.026 186.3H148.751V187.8L148.001 190.275L143.526 204H136.001ZM147.887 204L149.087 199.775V196.6L150.937 195.85L154.437 186.325H161.962L166.237 197.525L168.162 201.075V204H162.737L161.487 200.275H154.712L153.637 204H147.887ZM156.362 195.9H160.112L158.462 190.925H157.937L156.362 195.9Z" fill="white"/>
</g>
<defs>
<filter id="filter0_d_208_187" x="0" y="0" width="264" height="264" filterUnits="userSpaceOnUse" color-interpolation-filters="sRGB">
<feFlood flood-opacity="0" result="BackgroundImageFix"/>
<feColorMatrix in="SourceAlpha" type="matrix" values="0 0 0 0 0 0 0 0 0 0 0 0 0 0 0 0 0 0 127 0" result="hardAlpha"/>
<feOffset/>
<feGaussianBlur stdDeviation="10"/>
<feComposite in2="hardAlpha" operator="out"/>
<feColorMatrix type="matrix" values="0 0 0 0 0.0705882 0 0 0 0 0.968627 0 0 0 0 0.839216 0 0 0 0.2 0"/>
<feBlend mode="normal" in2="BackgroundImageFix" result="effect1_dropShadow_208_187"/>
<feBlend mode="normal" in="SourceGraphic" in2="effect1_dropShadow_208_187" result="shape"/>
</filter>
</defs>
</svg>
