<svg width="264" height="264" viewBox="0 0 264 264" fill="none" xmlns="http://www.w3.org/2000/svg">
<g filter="url(#filter0_d_294_11)">
<rect x="20" y="20" width="224" height="224" rx="20" fill="#23252A" shape-rendering="crispEdges"/>
<path d="M82.9527 117.667C80.0991 114.813 80.0991 110.187 82.9527 107.333L126.833 63.4527C129.687 60.5991 134.313 60.5991 137.167 63.4527L181.047 107.333C183.901 110.187 183.901 114.813 181.047 117.667L137.167 161.547C134.313 164.401 129.687 164.401 126.833 161.547L82.9527 117.667Z" fill="#EE513B"/>
<path d="M117.919 72.5062L113.476 76.9498L124.953 88.4265C124.488 89.4225 124.229 90.5333 124.229 91.7048C124.229 95.0305 126.319 97.8681 129.256 98.9763V127.051C126.319 128.159 124.229 130.997 124.229 134.323C124.229 138.614 127.708 142.092 131.999 142.092C136.289 142.092 139.768 138.614 139.768 134.323C139.768 131.308 138.051 128.694 135.541 127.406V99.0147L146.511 109.985C146.07 110.961 145.824 112.044 145.824 113.185C145.824 117.476 149.302 120.955 153.593 120.955C157.884 120.955 161.363 117.476 161.363 113.185C161.363 108.894 157.884 105.416 153.593 105.416C152.759 105.416 151.957 105.547 151.203 105.79L139.421 94.0078C139.647 93.2802 139.768 92.5066 139.768 91.7048C139.768 87.4137 136.289 83.9352 131.999 83.9352C131.197 83.9352 130.423 84.0566 129.695 84.2822L117.919 72.5062Z" fill="white"/>
<path d="M120.487 204.25C119.037 204.25 117.703 204.125 116.487 203.875C115.27 203.608 114.212 203.142 113.312 202.475C112.412 201.808 111.712 200.883 111.212 199.7C110.728 198.517 110.487 197 110.487 195.15C110.487 193.317 110.745 191.808 111.262 190.625C111.778 189.442 112.478 188.517 113.362 187.85C114.262 187.183 115.278 186.717 116.412 186.45C117.545 186.183 118.728 186.05 119.962 186.05C120.778 186.05 121.528 186.092 122.212 186.175C122.895 186.258 123.512 186.367 124.062 186.5L127.462 188.475L125.712 192.875L120.187 191.2C119.47 191.2 118.812 191.317 118.212 191.55C117.612 191.767 117.128 192.167 116.762 192.75C116.412 193.317 116.237 194.125 116.237 195.175C116.237 196.775 116.578 197.9 117.262 198.55C117.962 199.183 118.945 199.5 120.212 199.5C120.695 199.5 121.095 199.475 121.412 199.425C121.728 199.358 121.995 199.283 122.212 199.2V197.825H120.037V193.875H127.987L128.262 195.375L127.712 197.95V203.2C127.528 203.267 127.112 203.383 126.462 203.55C125.828 203.717 125.003 203.875 123.987 204.025C122.97 204.175 121.803 204.25 120.487 204.25ZM130.723 204V190.3L130.473 187.8L130.723 186.3H136.248V204H130.723ZM143.237 204V191.075L138.237 191.325V186.3H153.862V191.325L148.737 191.075V200L149.012 202.5L148.737 204H143.237Z" fill="white"/>
</g>
<defs>
<filter id="filter0_d_294_11" x="0" y="0" width="264" height="264" filterUnits="userSpaceOnUse" color-interpolation-filters="sRGB">
<feFlood flood-opacity="0" result="BackgroundImageFix"/>
<feColorMatrix in="SourceAlpha" type="matrix" values="0 0 0 0 0 0 0 0 0 0 0 0 0 0 0 0 0 0 127 0" result="hardAlpha"/>
<feOffset/>
<feGaussianBlur stdDeviation="10"/>
<feComposite in2="hardAlpha" operator="out"/>
<feColorMatrix type="matrix" values="0 0 0 0 0.0705882 0 0 0 0 0.968627 0 0 0 0 0.839216 0 0 0 0.2 0"/>
<feBlend mode="normal" in2="BackgroundImageFix" result="effect1_dropShadow_294_11"/>
<feBlend mode="normal" in="SourceGraphic" in2="effect1_dropShadow_294_11" result="shape"/>
</filter>
</defs>
</svg>
