<svg width="264" height="264" viewBox="0 0 264 264" fill="none" xmlns="http://www.w3.org/2000/svg">
<g filter="url(#filter0_d_208_100)">
<rect x="20" y="20" width="224" height="224" rx="20" fill="#23252A" shape-rendering="crispEdges"/>
<path d="M173.438 66.1875H90.5625L97.875 149.062L132 158.812L166.125 149.062L173.438 66.1875Z" fill="#E65100"/>
<path d="M132 73.5V151.256L159.3 143.456L165.394 73.5H132Z" fill="#FF6D00"/>
<path d="M132 114.938V105.188H152.962L151.256 133.219L132 139.556V129.319L141.994 125.906L142.725 114.938H132ZM153.694 95.4375L154.425 85.6875H132V95.4375H153.694Z" fill="white"/>
<path d="M132 129.319V139.556L112.744 133.219L111.769 119.812H121.519L122.006 125.906L132 129.319ZM120.056 95.4375H132V85.6875H109.819L111.525 114.938H132V105.188H120.787L120.056 95.4375Z" fill="#EEEEEE"/>
<path d="M94.9561 204V190.325L94.7061 187.825L94.9561 186.3H100.456V193.075H105.681V186.3H111.181V195.7L111.431 197.425V204H105.681V197.65H100.456V199.4L100.706 204H94.9561ZM118.433 204V191.075L113.433 191.325V186.3H129.058V191.325L123.933 191.075V200L124.208 202.5L123.933 204H118.433ZM131.559 204V190.325L131.059 187.825L131.584 186.325H137.409L142.309 195.075H142.809L146.859 186.325H152.834L153.084 187.825L152.834 190.225V204H147.309L147.384 201.875V194.9H147.109L146.159 197.525L144.359 201.5H140.359L137.409 194.9H137.159V196.925L137.409 204H131.559ZM156.583 204L156.083 202.5L156.583 200V186.3H162.083V195.825L161.833 199.25H162.333L166.808 199L168.583 198.75L170.783 202.4L169.558 204H156.583Z" fill="white"/>
</g>
<defs>
<filter id="filter0_d_208_100" x="0" y="0" width="264" height="264" filterUnits="userSpaceOnUse" color-interpolation-filters="sRGB">
<feFlood flood-opacity="0" result="BackgroundImageFix"/>
<feColorMatrix in="SourceAlpha" type="matrix" values="0 0 0 0 0 0 0 0 0 0 0 0 0 0 0 0 0 0 127 0" result="hardAlpha"/>
<feOffset/>
<feGaussianBlur stdDeviation="10"/>
<feComposite in2="hardAlpha" operator="out"/>
<feColorMatrix type="matrix" values="0 0 0 0 0.0705882 0 0 0 0 0.968627 0 0 0 0 0.839216 0 0 0 0.2 0"/>
<feBlend mode="normal" in2="BackgroundImageFix" result="effect1_dropShadow_208_100"/>
<feBlend mode="normal" in="SourceGraphic" in2="effect1_dropShadow_208_100" result="shape"/>
</filter>
</defs>
</svg>
