<svg width="264" height="264" viewBox="0 0 264 264" fill="none" xmlns="http://www.w3.org/2000/svg">
<g filter="url(#filter0_d_356_4)">
<rect x="20" y="20" width="224" height="224" rx="20" fill="#23252A" shape-rendering="crispEdges"/>
<path d="M112.5 171C123.264 171 132 162.264 132 151.5V132H112.5C101.736 132 93 140.736 93 151.5C93 162.264 101.736 171 112.5 171Z" fill="#0ACF83"/>
<path d="M93 112.5C93 101.736 101.736 93 112.5 93H132V132H112.5C101.736 132 93 123.264 93 112.5Z" fill="#A259FF"/>
<path d="M93 73.5C93 62.736 101.736 54 112.5 54H132V93H112.5C101.736 93 93 84.264 93 73.5Z" fill="#F24E1E"/>
<path d="M132 54H151.5C162.264 54 171 62.736 171 73.5C171 84.264 162.264 93 151.5 93H132V54Z" fill="#FF7262"/>
<path d="M171 112.5C171 123.264 162.264 132 151.5 132C140.736 132 132 123.264 132 112.5C132 101.736 140.736 93 151.5 93C162.264 93 171 101.736 171 112.5Z" fill="#1ABCFE"/>
<path d="M88.9072 204V190.35L88.4072 187.8L88.9072 186.3H101.782L103.032 187.05L101.382 191.3L99.1322 191.05H94.1572L94.4072 193.05H100.632V197.175H97.1072L94.4072 196.925V200.025L94.6822 202.525L94.4072 204H88.9072ZM104.941 204V190.3L104.691 187.8L104.941 186.3H110.466V204H104.941ZM122.806 204.25C121.356 204.25 120.023 204.125 118.806 203.875C117.589 203.608 116.531 203.142 115.631 202.475C114.731 201.808 114.031 200.883 113.531 199.7C113.048 198.517 112.806 197 112.806 195.15C112.806 193.317 113.064 191.808 113.581 190.625C114.098 189.442 114.798 188.517 115.681 187.85C116.581 187.183 117.598 186.717 118.731 186.45C119.864 186.183 121.048 186.05 122.281 186.05C123.098 186.05 123.848 186.092 124.531 186.175C125.214 186.258 125.831 186.367 126.381 186.5L129.781 188.475L128.031 192.875L122.506 191.2C121.789 191.2 121.131 191.317 120.531 191.55C119.931 191.767 119.448 192.167 119.081 192.75C118.731 193.317 118.556 194.125 118.556 195.175C118.556 196.775 118.898 197.9 119.581 198.55C120.281 199.183 121.264 199.5 122.531 199.5C123.014 199.5 123.414 199.475 123.731 199.425C124.048 199.358 124.314 199.283 124.531 199.2V197.825H122.356V193.875H130.306L130.581 195.375L130.031 197.95V203.2C129.848 203.267 129.431 203.383 128.781 203.55C128.148 203.717 127.323 203.875 126.306 204.025C125.289 204.175 124.123 204.25 122.806 204.25ZM133.292 204V190.325L132.792 187.825L133.317 186.325H139.142L144.042 195.075H144.542L148.592 186.325H154.567L154.817 187.825L154.567 190.225V204H149.042L149.117 201.875V194.9H148.842L147.892 197.525L146.092 201.5H142.092L139.142 194.9H138.892V196.925L139.142 204H133.292ZM156.566 204L157.766 199.775V196.6L159.616 195.85L163.116 186.325H170.641L174.916 197.525L176.841 201.075V204H171.416L170.166 200.275H163.391L162.316 204H156.566ZM165.041 195.9H168.791L167.141 190.925H166.616L165.041 195.9Z" fill="white"/>
</g>
<defs>
<filter id="filter0_d_356_4" x="0" y="0" width="264" height="264" filterUnits="userSpaceOnUse" color-interpolation-filters="sRGB">
<feFlood flood-opacity="0" result="BackgroundImageFix"/>
<feColorMatrix in="SourceAlpha" type="matrix" values="0 0 0 0 0 0 0 0 0 0 0 0 0 0 0 0 0 0 127 0" result="hardAlpha"/>
<feOffset/>
<feGaussianBlur stdDeviation="10"/>
<feComposite in2="hardAlpha" operator="out"/>
<feColorMatrix type="matrix" values="0 0 0 0 0.0705882 0 0 0 0 0.968627 0 0 0 0 0.839216 0 0 0 0.2 0"/>
<feBlend mode="normal" in2="BackgroundImageFix" result="effect1_dropShadow_356_4"/>
<feBlend mode="normal" in="SourceGraphic" in2="effect1_dropShadow_356_4" result="shape"/>
</filter>
</defs>
</svg>
