<svg width="264" height="264" viewBox="0 0 264 264" fill="none" xmlns="http://www.w3.org/2000/svg">
<g filter="url(#filter0_d_294_29)">
<rect x="20" y="20" width="224" height="224" rx="20" fill="#23252A" shape-rendering="crispEdges"/>
<g clip-path="url(#clip0_294_29)">
<path fill-rule="evenodd" clip-rule="evenodd" d="M132 54C164.31 54 190.5 80.8511 190.5 113.98C190.5 140.474 173.757 162.95 150.527 170.889C147.561 171.479 146.508 169.606 146.508 168.009C146.508 166.032 146.578 159.574 146.578 151.548C146.578 145.955 144.706 142.305 142.606 140.445C155.634 138.959 169.323 133.886 169.323 110.849C169.323 104.297 167.053 98.9504 163.297 94.7501C163.906 93.2349 165.912 87.1341 162.724 78.8739C162.724 78.8739 157.822 77.2668 146.654 85.0239C141.98 83.6959 136.972 83.0277 132 83.0043C127.027 83.0277 122.026 83.6959 117.357 85.0239C106.178 77.2668 101.264 78.8739 101.264 78.8739C98.0876 87.1341 100.094 93.2349 100.697 94.7501C96.9585 98.9504 94.6712 104.297 94.6712 110.849C94.6712 133.828 108.331 138.978 121.324 140.493C119.651 141.991 118.136 144.633 117.609 148.511C114.275 150.044 105.804 152.697 100.585 143.53C100.585 143.53 97.4909 137.767 91.6175 137.345C91.6175 137.345 85.9137 137.27 91.2196 140.99C91.2196 140.99 95.0514 142.833 97.7131 149.765C97.7131 149.765 101.147 160.47 117.422 156.843C117.451 161.857 117.504 166.582 117.504 168.009C117.504 169.595 116.427 171.45 113.508 170.894C90.2602 162.968 73.5 140.48 73.5 113.98C73.5 80.8511 99.6963 54 132 54Z" fill="white"/>
</g>
<path d="M90.9091 204.25C89.4591 204.25 88.1257 204.125 86.9091 203.875C85.6924 203.608 84.6341 203.142 83.7341 202.475C82.8341 201.808 82.1341 200.883 81.6341 199.7C81.1507 198.517 80.9091 197 80.9091 195.15C80.9091 193.317 81.1674 191.808 81.6841 190.625C82.2007 189.442 82.9007 188.517 83.7841 187.85C84.6841 187.183 85.7007 186.717 86.8341 186.45C87.9674 186.183 89.1507 186.05 90.3841 186.05C91.2007 186.05 91.9507 186.092 92.6341 186.175C93.3174 186.258 93.9341 186.367 94.4841 186.5L97.8841 188.475L96.1341 192.875L90.6091 191.2C89.8924 191.2 89.2341 191.317 88.6341 191.55C88.0341 191.767 87.5507 192.167 87.1841 192.75C86.8341 193.317 86.6591 194.125 86.6591 195.175C86.6591 196.775 87.0007 197.9 87.6841 198.55C88.3841 199.183 89.3674 199.5 90.6341 199.5C91.1174 199.5 91.5174 199.475 91.8341 199.425C92.1507 199.358 92.4174 199.283 92.6341 199.2V197.825H90.4591V193.875H98.4091L98.6841 195.375L98.1341 197.95V203.2C97.9507 203.267 97.5341 203.383 96.8841 203.55C96.2507 203.717 95.4257 203.875 94.4091 204.025C93.3924 204.175 92.2257 204.25 90.9091 204.25ZM101.145 204V190.3L100.895 187.8L101.145 186.3H106.67V204H101.145ZM113.66 204V191.075L108.66 191.325V186.3H124.285V191.325L119.16 191.075V200L119.435 202.5L119.16 204H113.66ZM126.536 204V190.325L126.286 187.825L126.536 186.3H132.036V193.075H137.261V186.3H142.761V195.7L143.011 197.425V204H137.261V197.65H132.036V199.4L132.286 204H126.536ZM153.987 204.25C151.071 204.25 148.971 203.667 147.687 202.5C146.404 201.317 145.762 199.425 145.762 196.825V190.325L145.787 187.8L145.762 186.3H151.362V195.575C151.362 196.342 151.421 197.025 151.537 197.625C151.654 198.208 151.904 198.667 152.287 199C152.671 199.333 153.254 199.5 154.037 199.5C154.837 199.5 155.429 199.35 155.812 199.05C156.196 198.75 156.446 198.308 156.562 197.725C156.679 197.142 156.737 196.425 156.737 195.575V186.3H162.212V196.825C162.212 198.525 161.937 199.925 161.387 201.025C160.837 202.108 159.962 202.917 158.762 203.45C157.562 203.983 155.971 204.25 153.987 204.25ZM165.458 204V190.3L164.958 187.8L165.458 186.3H174.958C176.841 186.3 178.349 186.667 179.483 187.4C180.616 188.133 181.183 189.25 181.183 190.75C181.183 191.567 181.033 192.242 180.733 192.775C180.449 193.292 180.083 193.733 179.633 194.1C180.199 194.233 180.733 194.483 181.233 194.85C181.733 195.2 182.141 195.675 182.458 196.275C182.774 196.858 182.933 197.583 182.933 198.45C182.933 200.2 182.416 201.567 181.383 202.55C180.366 203.517 178.724 204 176.458 204H165.458ZM170.958 193.175H173.908C174.474 193.175 174.883 193.092 175.133 192.925C175.383 192.742 175.508 192.467 175.508 192.1C175.508 191.717 175.324 191.45 174.958 191.3C174.591 191.133 174.158 191.05 173.658 191.05H170.958V193.175ZM170.958 199.25H175.208C175.874 199.25 176.341 199.15 176.608 198.95C176.874 198.733 177.008 198.45 177.008 198.1C177.008 197.3 176.491 196.9 175.458 196.9H170.958V199.25Z" fill="white"/>
</g>
<defs>
<filter id="filter0_d_294_29" x="0" y="0" width="264" height="264" filterUnits="userSpaceOnUse" color-interpolation-filters="sRGB">
<feFlood flood-opacity="0" result="BackgroundImageFix"/>
<feColorMatrix in="SourceAlpha" type="matrix" values="0 0 0 0 0 0 0 0 0 0 0 0 0 0 0 0 0 0 127 0" result="hardAlpha"/>
<feOffset/>
<feGaussianBlur stdDeviation="10"/>
<feComposite in2="hardAlpha" operator="out"/>
<feColorMatrix type="matrix" values="0 0 0 0 0.0705882 0 0 0 0 0.968627 0 0 0 0 0.839216 0 0 0 0.2 0"/>
<feBlend mode="normal" in2="BackgroundImageFix" result="effect1_dropShadow_294_29"/>
<feBlend mode="normal" in="SourceGraphic" in2="effect1_dropShadow_294_29" result="shape"/>
</filter>
<clipPath id="clip0_294_29">
<rect width="117" height="117" fill="white" transform="translate(73.5 54)"/>
</clipPath>
</defs>
</svg>
